<svg xmlns="http://www.w3.org/2000/svg" version="1.1" xmlns:xlink="http://www.w3.org/1999/xlink" xmlns:svgjs="http://svgjs.dev/svgjs" width="128" height="128" viewBox="0 0 128 128"><g transform="matrix(0.8046875,0,0,0.8046875,12.41184074821259,12.814873242367177)"><svg viewBox="0 0 98 98" data-background-color="#528265" preserveAspectRatio="xMidYMid meet" height="127" width="128" xmlns="http://www.w3.org/2000/svg" xmlns:xlink="http://www.w3.org/1999/xlink"><g id="tight-bounds" transform="matrix(1,0,0,1,0.08387967645792571,0.08387967645792571)"><svg viewBox="0 0 97.83224064708413 97.83224064708413" height="97.83224064708413" width="97.83224064708413"><g><svg></svg></g><g><svg viewBox="0 0 97.83224064708413 97.83224064708413" height="97.83224064708413" width="97.83224064708413"><g><path d="M0 48.916c0-27.016 21.9-48.916 48.916-48.916 27.016 0 48.916 21.9 48.916 48.916 0 27.016-21.9 48.916-48.916 48.916-27.016 0-48.916-21.9-48.916-48.916zM48.916 93.244c24.481 0 44.328-19.846 44.328-44.328 0-24.481-19.846-44.328-44.328-44.327-24.481 0-44.328 19.846-44.327 44.327 0 24.481 19.846 44.328 44.327 44.328z" data-fill-palette-color="tertiary" fill="#ffffff" stroke="transparent"></path><ellipse rx="46.959475510600384" ry="46.959475510600384" cx="48.91612032354207" cy="48.91612032354207" fill="#ffffff" stroke="transparent" stroke-width="0" fill-opacity="1" data-fill-palette-color="tertiary"></ellipse></g><g transform="matrix(1,0,0,1,23.475393915029336,23.475393915029336)"><svg viewBox="0 0 50.88145281702546 50.88145281702546" height="50.88145281702546" width="50.88145281702546"><g><svg viewBox="0 0 50.88145281702546 50.88145281702546" height="50.88145281702546" width="50.88145281702546"><g><svg viewBox="0 0 50.88145281702546 50.88145281702546" height="50.88145281702546" width="50.88145281702546"><g id="textblocktransform"><svg viewBox="0 0 50.88145281702546 50.88145281702546" height="50.88145281702546" width="50.88145281702546" id="textblock"><g><svg viewBox="0 0 50.88145281702546 50.88145281702546" height="50.88145281702546" width="50.88145281702546"><g><svg viewBox="0 0 50.88145281702546 50.88145281702546" height="50.88145281702546" width="50.88145281702546"><g><svg xmlns="http://www.w3.org/2000/svg" xmlns:xlink="http://www.w3.org/1999/xlink" version="1.1" x="0" y="0" viewBox="5 5 90 90" enable-background="new 0 0 100 100" xml:space="preserve" height="50.88145281702546" width="50.88145281702546" class="icon-icon-0" data-fill-palette-color="quaternary" id="icon-0"><g fill="#528265" data-fill-palette-color="quaternary"><path d="M94.377 42.577c-10.59-4.327-34.831-4.784-48.575 0.442 7.722 4.119 14.418 9.167 18.927 14.629 9.644-2.74 19.584-4.091 30.123-4.167C94.941 52.331 95 51.173 95 50 95 47.471 94.78 44.994 94.377 42.577z" fill="#528265" data-fill-palette-color="quaternary"></path><path d="M93.916 40.214C89.434 20.093 71.452 5 50 5 31.379 5 15.364 16.37 8.53 32.531c11.277 0.294 23.937 3.833 34.882 9.257C56.971 35.81 81.789 35.931 93.916 40.214z" fill="#528265" data-fill-palette-color="quaternary"></path><path d="M7.729 34.562C5.964 39.379 5 44.579 5 50c0 12.726 5.319 24.226 13.839 32.419 14.689-11.679 28.896-19.582 43.752-24.14C51.33 45.251 27.274 34.81 7.729 34.562z" fill="#528265" data-fill-palette-color="quaternary"></path><path d="M50 95c22.94 0 41.913-17.259 44.648-39.471-26.951 0.243-49.939 9.002-74.283 28.293C28.288 90.772 38.657 95 50 95z" fill="#528265" data-fill-palette-color="quaternary"></path></g></svg></g></svg></g></svg></g></svg></g></svg></g><g></g></svg></g></svg></g></svg></g><defs></defs></svg><rect width="97.83224064708413" height="97.83224064708413" fill="none" stroke="none" visibility="hidden"></rect></g></svg></g></svg>